<mxfile host="app.diagrams.net" modified="2024-03-22T10:29:15.209Z" agent="Mozilla/5.0 (Windows NT 10.0; Win64; x64) AppleWebKit/537.36 (KHTML, like Gecko) Chrome/122.0.0.0 Safari/537.36" etag="J5iPyVy0j77Dd5XsPZgT" version="24.0.7" type="github">
  <diagram id="C5RBs43oDa-KdzZeNtuy" name="Page-1">
    <mxGraphModel dx="1434" dy="738" grid="1" gridSize="10" guides="1" tooltips="1" connect="1" arrows="1" fold="1" page="1" pageScale="1" pageWidth="827" pageHeight="1169" math="0" shadow="0">
      <root>
        <mxCell id="WIyWlLk6GJQsqaUBKTNV-0" />
        <mxCell id="WIyWlLk6GJQsqaUBKTNV-1" parent="WIyWlLk6GJQsqaUBKTNV-0" />
        <mxCell id="VWI6Oc27oZ494ex9-anY-2" value="" style="edgeStyle=orthogonalEdgeStyle;rounded=0;orthogonalLoop=1;jettySize=auto;html=1;" edge="1" parent="WIyWlLk6GJQsqaUBKTNV-1" source="VWI6Oc27oZ494ex9-anY-0" target="VWI6Oc27oZ494ex9-anY-1">
          <mxGeometry relative="1" as="geometry" />
        </mxCell>
        <mxCell id="VWI6Oc27oZ494ex9-anY-0" value="Select BC in search box" style="html=1;dashed=0;whiteSpace=wrap;shape=mxgraph.dfd.start" vertex="1" parent="WIyWlLk6GJQsqaUBKTNV-1">
          <mxGeometry x="220" y="10" width="370" height="80" as="geometry" />
        </mxCell>
        <mxCell id="VWI6Oc27oZ494ex9-anY-4" value="" style="edgeStyle=orthogonalEdgeStyle;rounded=0;orthogonalLoop=1;jettySize=auto;html=1;" edge="1" parent="WIyWlLk6GJQsqaUBKTNV-1" source="VWI6Oc27oZ494ex9-anY-1" target="VWI6Oc27oZ494ex9-anY-3">
          <mxGeometry relative="1" as="geometry" />
        </mxCell>
        <mxCell id="VWI6Oc27oZ494ex9-anY-5" value="true" style="edgeLabel;html=1;align=center;verticalAlign=middle;resizable=0;points=[];" vertex="1" connectable="0" parent="VWI6Oc27oZ494ex9-anY-4">
          <mxGeometry x="-0.275" y="1" relative="1" as="geometry">
            <mxPoint as="offset" />
          </mxGeometry>
        </mxCell>
        <mxCell id="VWI6Oc27oZ494ex9-anY-12" value="" style="edgeStyle=orthogonalEdgeStyle;rounded=0;orthogonalLoop=1;jettySize=auto;html=1;" edge="1" parent="WIyWlLk6GJQsqaUBKTNV-1" source="VWI6Oc27oZ494ex9-anY-1" target="VWI6Oc27oZ494ex9-anY-11">
          <mxGeometry relative="1" as="geometry" />
        </mxCell>
        <mxCell id="VWI6Oc27oZ494ex9-anY-13" value="false" style="edgeLabel;html=1;align=center;verticalAlign=middle;resizable=0;points=[];" vertex="1" connectable="0" parent="VWI6Oc27oZ494ex9-anY-12">
          <mxGeometry x="-0.2079" y="-1" relative="1" as="geometry">
            <mxPoint as="offset" />
          </mxGeometry>
        </mxCell>
        <mxCell id="VWI6Oc27oZ494ex9-anY-1" value="&lt;p style=&quot;margin: 0px; padding: 0px; user-select: text; -webkit-user-drag: none; -webkit-tap-highlight-color: transparent; color: rgb(48, 48, 48); font-family: Calibri; font-size: 16px; background-color: rgb(255, 255, 255);&quot;&gt;&lt;span style=&quot;margin: 0px; padding: 0px; user-select: text; -webkit-user-drag: none; -webkit-tap-highlight-color: transparent; font-size: 12pt;&quot; data-colorformula=&quot;THEMEVAL(&amp;quot;TextColor&amp;quot;,RGB(0,0,0))&quot; data-colorparams=&quot;#feffff_null_null&quot;&gt;check and confirm Line of Business&amp;nbsp;&lt;/span&gt;&lt;/p&gt;&lt;p style=&quot;margin: 0px; padding: 0px; user-select: text; -webkit-user-drag: none; -webkit-tap-highlight-color: transparent; color: rgb(48, 48, 48); font-family: Calibri; font-size: 16px; background-color: rgb(255, 255, 255);&quot;&gt;&lt;span style=&quot;margin: 0px; padding: 0px; user-select: text; -webkit-user-drag: none; -webkit-tap-highlight-color: transparent; font-size: 12pt;&quot; data-colorformula=&quot;THEMEVAL(&amp;quot;TextColor&amp;quot;,RGB(0,0,0))&quot; data-colorparams=&quot;#feffff_null_null&quot;&gt;(GCDV, FSPU, FSPV, FSPR, JTVN)&lt;/span&gt;&lt;/p&gt;" style="rhombus;whiteSpace=wrap;html=1;dashed=0;" vertex="1" parent="WIyWlLk6GJQsqaUBKTNV-1">
          <mxGeometry x="253.75" y="150" width="302.5" height="140" as="geometry" />
        </mxCell>
        <mxCell id="VWI6Oc27oZ494ex9-anY-7" value="" style="edgeStyle=orthogonalEdgeStyle;rounded=0;orthogonalLoop=1;jettySize=auto;html=1;" edge="1" parent="WIyWlLk6GJQsqaUBKTNV-1" source="VWI6Oc27oZ494ex9-anY-3" target="VWI6Oc27oZ494ex9-anY-6">
          <mxGeometry relative="1" as="geometry" />
        </mxCell>
        <mxCell id="VWI6Oc27oZ494ex9-anY-8" value="true" style="edgeLabel;html=1;align=center;verticalAlign=middle;resizable=0;points=[];" vertex="1" connectable="0" parent="VWI6Oc27oZ494ex9-anY-7">
          <mxGeometry x="-0.225" y="2" relative="1" as="geometry">
            <mxPoint as="offset" />
          </mxGeometry>
        </mxCell>
        <mxCell id="VWI6Oc27oZ494ex9-anY-14" style="edgeStyle=orthogonalEdgeStyle;rounded=0;orthogonalLoop=1;jettySize=auto;html=1;" edge="1" parent="WIyWlLk6GJQsqaUBKTNV-1" source="VWI6Oc27oZ494ex9-anY-3" target="VWI6Oc27oZ494ex9-anY-11">
          <mxGeometry relative="1" as="geometry" />
        </mxCell>
        <mxCell id="VWI6Oc27oZ494ex9-anY-15" value="false" style="edgeLabel;html=1;align=center;verticalAlign=middle;resizable=0;points=[];" vertex="1" connectable="0" parent="VWI6Oc27oZ494ex9-anY-14">
          <mxGeometry x="0.2061" relative="1" as="geometry">
            <mxPoint as="offset" />
          </mxGeometry>
        </mxCell>
        <mxCell id="VWI6Oc27oZ494ex9-anY-3" value="&lt;p style=&quot;margin: 0px; padding: 0px; user-select: text; -webkit-user-drag: none; -webkit-tap-highlight-color: transparent; color: rgb(48, 48, 48); font-family: Calibri; font-size: 16px; background-color: rgb(255, 255, 255);&quot;&gt;&lt;span style=&quot;margin: 0px; padding: 0px; user-select: text; -webkit-user-drag: none; -webkit-tap-highlight-color: transparent; font-size: 12pt;&quot; data-colorformula=&quot;THEMEVAL(&amp;quot;TextColor&amp;quot;,RGB(0,0,0))&quot; data-colorparams=&quot;#feffff_null_null&quot;&gt;check and confirm&lt;/span&gt;&lt;/p&gt;&lt;p style=&quot;margin: 0px; padding: 0px; user-select: text; -webkit-user-drag: none; -webkit-tap-highlight-color: transparent; color: rgb(48, 48, 48); font-family: Calibri; font-size: 16px; background-color: rgb(255, 255, 255);&quot;&gt;&lt;span style=&quot;margin: 0px; padding: 0px; user-select: text; -webkit-user-drag: none; -webkit-tap-highlight-color: transparent; font-size: 12pt;&quot; data-colorformula=&quot;THEMEVAL(&amp;quot;TextColor&amp;quot;,RGB(0,0,0))&quot; data-colorparams=&quot;#feffff_null_null&quot;&gt;Project Level&lt;/span&gt;&lt;/p&gt;&lt;p style=&quot;margin: 0px; padding: 0px; user-select: text; -webkit-user-drag: none; -webkit-tap-highlight-color: transparent; color: rgb(48, 48, 48); font-family: Calibri; font-size: 16px; background-color: rgb(255, 255, 255);&quot;&gt;&lt;span style=&quot;margin: 0px; padding: 0px; user-select: text; -webkit-user-drag: none; -webkit-tap-highlight-color: transparent; font-size: 12pt;&quot; data-colorformula=&quot;THEMEVAL(&amp;quot;TextColor&amp;quot;,RGB(0,0,0))&quot; data-colorparams=&quot;#feffff_null_null&quot;&gt;(EXC)&lt;/span&gt;&lt;/p&gt;" style="rhombus;whiteSpace=wrap;html=1;dashed=0;" vertex="1" parent="WIyWlLk6GJQsqaUBKTNV-1">
          <mxGeometry x="271.88" y="370" width="266.25" height="100" as="geometry" />
        </mxCell>
        <mxCell id="VWI6Oc27oZ494ex9-anY-10" value="" style="edgeStyle=orthogonalEdgeStyle;rounded=0;orthogonalLoop=1;jettySize=auto;html=1;" edge="1" parent="WIyWlLk6GJQsqaUBKTNV-1" source="VWI6Oc27oZ494ex9-anY-6" target="VWI6Oc27oZ494ex9-anY-9">
          <mxGeometry relative="1" as="geometry" />
        </mxCell>
        <mxCell id="VWI6Oc27oZ494ex9-anY-16" style="edgeStyle=orthogonalEdgeStyle;rounded=0;orthogonalLoop=1;jettySize=auto;html=1;entryX=0.5;entryY=1;entryDx=0;entryDy=0;" edge="1" parent="WIyWlLk6GJQsqaUBKTNV-1" source="VWI6Oc27oZ494ex9-anY-6" target="VWI6Oc27oZ494ex9-anY-11">
          <mxGeometry relative="1" as="geometry" />
        </mxCell>
        <mxCell id="VWI6Oc27oZ494ex9-anY-17" value="false" style="edgeLabel;html=1;align=center;verticalAlign=middle;resizable=0;points=[];" vertex="1" connectable="0" parent="VWI6Oc27oZ494ex9-anY-16">
          <mxGeometry x="-0.0131" y="1" relative="1" as="geometry">
            <mxPoint as="offset" />
          </mxGeometry>
        </mxCell>
        <mxCell id="VWI6Oc27oZ494ex9-anY-6" value="&lt;p style=&quot;margin: 0px; padding: 0px; user-select: text; -webkit-user-drag: none; -webkit-tap-highlight-color: transparent; color: rgb(48, 48, 48); font-family: Calibri; font-size: 16px; background-color: rgb(255, 255, 255);&quot;&gt;&lt;span style=&quot;margin: 0px; padding: 0px; user-select: text; -webkit-user-drag: none; -webkit-tap-highlight-color: transparent; font-size: 12pt;&quot; data-colorformula=&quot;THEMEVAL(&amp;quot;TextColor&amp;quot;,RGB(0,0,0))&quot; data-colorparams=&quot;#feffff_null_null&quot;&gt;if one of the following Service Areas is pressent:&lt;/span&gt;&lt;/p&gt;&lt;p style=&quot;margin: 0px; padding: 0px; user-select: text; -webkit-user-drag: none; -webkit-tap-highlight-color: transparent; color: rgb(48, 48, 48); font-family: Calibri; font-size: 16px; background-color: rgb(255, 255, 255);&quot;&gt;&lt;span style=&quot;margin: 0px; padding: 0px; user-select: text; -webkit-user-drag: none; -webkit-tap-highlight-color: transparent; font-size: 12pt;&quot; data-colorformula=&quot;THEMEVAL(&amp;quot;TextColor&amp;quot;,RGB(0,0,0))&quot; data-colorparams=&quot;#feffff_null_null&quot;&gt;Investigatr, Language Services, Pass Through&lt;/span&gt;&lt;/p&gt;" style="rhombus;whiteSpace=wrap;html=1;dashed=0;" vertex="1" parent="WIyWlLk6GJQsqaUBKTNV-1">
          <mxGeometry x="140" y="550" width="528.13" height="100" as="geometry" />
        </mxCell>
        <mxCell id="VWI6Oc27oZ494ex9-anY-9" value="Collect the Report" style="whiteSpace=wrap;html=1;dashed=0;" vertex="1" parent="WIyWlLk6GJQsqaUBKTNV-1">
          <mxGeometry x="344.065" y="750" width="120" height="60" as="geometry" />
        </mxCell>
        <mxCell id="VWI6Oc27oZ494ex9-anY-11" value="close the process" style="whiteSpace=wrap;html=1;dashed=0;" vertex="1" parent="WIyWlLk6GJQsqaUBKTNV-1">
          <mxGeometry x="707" y="400" width="120" height="60" as="geometry" />
        </mxCell>
      </root>
    </mxGraphModel>
  </diagram>
</mxfile>
